<?xml version="1.0" encoding="UTF-8" standalone="no"?>
<!-- Created with Inkscape (http://www.inkscape.org/) -->

<svg
   xmlns:dc="http://purl.org/dc/elements/1.1/"
   xmlns:cc="http://creativecommons.org/ns#"
   xmlns:rdf="http://www.w3.org/1999/02/22-rdf-syntax-ns#"
   xmlns:svg="http://www.w3.org/2000/svg"
   xmlns="http://www.w3.org/2000/svg"
   xmlns:sodipodi="http://sodipodi.sourceforge.net/DTD/sodipodi-0.dtd"
   xmlns:inkscape="http://www.inkscape.org/namespaces/inkscape"
   width="500"
   height="500"
   viewBox="0 0 132.29166 132.29167"
   version="1.1"
   id="svg9663"
   inkscape:version="0.92.4 (5da689c313, 2019-01-14)"
   sodipodi:docname="divers_fonction_antecedent.svg">
  <defs
     id="defs9657" />
  <sodipodi:namedview
     id="base"
     pagecolor="#ffffff"
     bordercolor="#666666"
     borderopacity="1.0"
     inkscape:pageopacity="0.0"
     inkscape:pageshadow="2"
     inkscape:zoom="1.4"
     inkscape:cx="143.28213"
     inkscape:cy="274.91527"
     inkscape:document-units="mm"
     inkscape:current-layer="layer1"
     showgrid="false"
     units="px"
     inkscape:window-width="1920"
     inkscape:window-height="1017"
     inkscape:window-x="-8"
     inkscape:window-y="-8"
     inkscape:window-maximized="1" />
  <metadata
     id="metadata9660">
    <rdf:RDF>
      <cc:Work
         rdf:about="">
        <dc:format>image/svg+xml</dc:format>
        <dc:type
           rdf:resource="http://purl.org/dc/dcmitype/StillImage" />
        <dc:title />
      </cc:Work>
    </rdf:RDF>
  </metadata>
  <g
     inkscape:label="Layer 1"
     inkscape:groupmode="layer"
     id="layer1"
     transform="translate(0,-164.70832)">
    <line
       id="line327"
       y2="291.32166"
       x2="14.441118"
       y1="172.43474"
       x1="14.441118"
       style="visibility:visible;stroke:#000000;stroke-width:0.22016095" />
    <line
       id="line331"
       y2="291.32166"
       x2="27.650774"
       y1="172.43474"
       x1="27.650774"
       style="visibility:visible;stroke:#000000;stroke-width:0.22016095" />
    <line
       id="line335"
       y2="291.32166"
       x2="40.860432"
       y1="172.43474"
       x1="40.860432"
       style="visibility:visible;stroke:#000000;stroke-width:0.22016095" />
    <line
       id="line339"
       y2="291.32166"
       x2="54.070087"
       y1="172.43474"
       x1="54.070087"
       style="visibility:visible;stroke:#000000;stroke-width:0.22016095" />
    <line
       id="line343"
       y2="291.32166"
       x2="67.279739"
       y1="172.43474"
       x1="67.279739"
       style="visibility:visible;stroke:#000000;stroke-width:0.52916676;stroke-miterlimit:4;stroke-dasharray:none" />
    <line
       id="line347"
       y2="291.32166"
       x2="80.489395"
       y1="172.43474"
       x1="80.489395"
       style="visibility:visible;stroke:#000000;stroke-width:0.22016095" />
    <line
       id="line351"
       y2="291.32166"
       x2="93.699081"
       y1="172.43474"
       x1="93.699081"
       style="visibility:visible;stroke:#000000;stroke-width:0.22016095" />
    <line
       id="line355"
       y2="291.32166"
       x2="106.90874"
       y1="172.43474"
       x1="106.90874"
       style="visibility:visible;stroke:#000000;stroke-width:0.22016095" />
    <line
       id="line359"
       y2="291.32166"
       x2="120.11839"
       y1="172.43474"
       x1="120.11839"
       style="visibility:visible;stroke:#000000;stroke-width:0.22016095" />
    <line
       id="line363"
       y2="291.32166"
       x2="120.11839"
       y1="291.32166"
       x1="14.441118"
       style="visibility:visible;stroke:#000000;stroke-width:0.22016095" />
    <line
       id="line367"
       y2="278.112"
       x2="120.11839"
       y1="278.112"
       x1="14.441118"
       style="visibility:visible;stroke:#000000;stroke-width:0.22016095" />
    <line
       id="line371"
       y2="264.90234"
       x2="120.11839"
       y1="264.90234"
       x1="14.441118"
       style="visibility:visible;stroke:#000000;stroke-width:0.22016095" />
    <line
       id="line375"
       y2="251.69267"
       x2="120.11839"
       y1="251.69267"
       x1="14.441118"
       style="visibility:visible;stroke:#000000;stroke-width:0.52916676;stroke-miterlimit:4;stroke-dasharray:none" />
    <line
       id="line379"
       y2="238.48302"
       x2="120.11839"
       y1="238.48302"
       x1="14.441118"
       style="visibility:visible;stroke:#000000;stroke-width:0.22016095" />
    <line
       id="line383"
       y2="225.27338"
       x2="120.11839"
       y1="225.27338"
       x1="14.441118"
       style="visibility:visible;stroke:#000000;stroke-width:0.22016095" />
    <line
       id="line387"
       y2="212.06372"
       x2="120.11839"
       y1="212.06372"
       x1="14.441118"
       style="visibility:visible;stroke:#000000;stroke-width:0.22016095" />
    <line
       id="line391"
       y2="198.85406"
       x2="120.11839"
       y1="198.85406"
       x1="14.441118"
       style="visibility:visible;stroke:#000000;stroke-width:0.22016095" />
    <line
       id="line395"
       y2="185.64441"
       x2="120.11839"
       y1="185.64441"
       x1="14.441118"
       style="visibility:visible;stroke:#000000;stroke-width:0.22016095" />
    <line
       id="line399"
       y2="172.43474"
       x2="120.11839"
       y1="172.43474"
       x1="14.441118"
       style="visibility:visible;stroke:#000000;stroke-width:0.22016095" />
    <rect
       id="rect403"
       height="118.88691"
       width="105.67725"
       y="172.43474"
       x="14.441118"
       style="visibility:visible;fill:none;stroke:#000000;stroke-width:0.44032189" />
    <polyline
       transform="matrix(0.44032189,0,0,0.44032189,-5.3733514,119.59611)"
       points="71.46 389.985 71.46 389.985 72 385.209 75 359.99 78 336.926 81 315.913 84 296.851 87 279.64 90 264.183 93 250.388 96 238.16 99 227.411 102 218.052 105 209.998 108 203.164 111 197.47 114 192.837 117 189.186 120 186.444 123 184.538 126 183.396 129 182.952 132 183.137 135 183.889 138 185.145 141 186.845 144 188.933 147 191.352 150 194.049 153 196.974 156 200.077 159 203.312 162 206.634 165 210 168 213.371 171 216.708 174 219.975 177 223.139 180 226.168 183 229.032 186 231.705 189 234.161 192 236.377 195 238.333 198 240.01 201 241.392 204 242.464 207 243.214 210 243.632 213 243.711 216 243.446 219 242.831 222 241.867 225 240.554 228 238.896 231 236.897 234 234.565 237 231.91 240 228.943 243 225.678 246 222.131 249 218.321 252 214.268 255 209.995 258 205.525 261 200.887 264 196.109 267 191.223 270 186.262 273 181.261 276 176.258 279 171.294 282 166.409 283.5 164.011"
       style="visibility:visible;fill:none;stroke:#000080;stroke-width:2;stroke-linecap:round;stroke-opacity:1"
       visibility="visible"
       id="polyline407" />
    <line
       x1="65.07814"
       y1="214.26534"
       x2="69.4814"
       y2="209.86211"
       style="visibility:hidden;stroke:#0000ff;stroke-width:0.44032186;stroke-linecap:round;stroke-opacity:1"
       id="line1681" />
    <line
       x1="65.07814"
       y1="209.86211"
       x2="69.4814"
       y2="214.26534"
       style="visibility:hidden;stroke:#0000ff;stroke-width:0.44032186;stroke-linecap:round;stroke-opacity:1"
       id="line1683" />
    <line
       x1="14.441118"
       y1="212.06372"
       x2="120.11839"
       y2="212.06372"
       style="stroke:#a0522d;stroke-width:0.88064373;stroke-linecap:round;stroke-opacity:1"
       id="line1693" />
    <line
       x1="38.658833"
       y1="214.26534"
       x2="43.062092"
       y2="209.86211"
       style="visibility:hidden;stroke:#ff0000;stroke-width:0.44032186;stroke-linecap:round;stroke-opacity:1"
       id="line1849" />
    <line
       x1="38.658833"
       y1="209.86211"
       x2="43.062092"
       y2="214.26534"
       style="visibility:hidden;stroke:#ff0000;stroke-width:0.44032186;stroke-linecap:round;stroke-opacity:1"
       id="line1851" />
    <line
       x1="65.07814"
       y1="214.26534"
       x2="69.4814"
       y2="209.86211"
       style="visibility:hidden;stroke:#ff0000;stroke-width:0.44032186;stroke-linecap:round;stroke-opacity:1"
       id="line1855" />
    <line
       x1="65.07814"
       y1="209.86211"
       x2="69.4814"
       y2="214.26534"
       style="visibility:hidden;stroke:#ff0000;stroke-width:0.44032186;stroke-linecap:round;stroke-opacity:1"
       id="line1857" />
    <line
       x1="104.70711"
       y1="214.26534"
       x2="109.11034"
       y2="209.86211"
       style="visibility:hidden;stroke:#ff0000;stroke-width:0.44032186;stroke-linecap:round;stroke-opacity:1"
       id="line1861" />
    <line
       x1="104.70711"
       y1="209.86211"
       x2="109.11034"
       y2="214.26534"
       style="visibility:hidden;stroke:#ff0000;stroke-width:0.44032186;stroke-linecap:round;stroke-opacity:1"
       id="line1863" />
    <line
       id="line1867"
       style="stroke:#a0522d;stroke-width:0.88064378;stroke-linecap:round;stroke-dasharray:4.40321895, 3.52257516, 4.40321895;stroke-opacity:1"
       y2="251.69267"
       x2="40.860432"
       y1="212.06372"
       x1="40.860432" />
    <polyline
       id="polyline1869"
       style="fill:none;stroke:#a0522d;stroke-width:2;stroke-opacity:1"
       points="111 289.60769515458674,105 300,99 289.60769515458674"
       transform="matrix(0.44032189,0,0,0.44032189,-5.3733514,119.59611)" />
    <line
       id="line1925"
       style="stroke:#a0522d;stroke-width:0.88064378;stroke-linecap:round;stroke-dasharray:4.40321895, 3.52257516, 4.40321895;stroke-opacity:1"
       y2="251.69267"
       x2="67.279739"
       y1="212.06372"
       x1="67.279739" />
    <polyline
       id="polyline1927"
       style="fill:none;stroke:#a0522d;stroke-width:2;stroke-opacity:1"
       points="171 289.60769515458674,165 300,159 289.60769515458674"
       transform="matrix(0.44032189,0,0,0.44032189,-5.3733514,119.59611)" />
    <line
       id="line1947"
       style="stroke:#a0522d;stroke-width:0.88064378;stroke-linecap:round;stroke-dasharray:4.40321895, 3.52257516, 4.40321895;stroke-opacity:1"
       y2="251.69267"
       x2="106.90874"
       y1="212.06372"
       x1="106.90874" />
    <polyline
       id="polyline1949"
       style="fill:none;stroke:#a0522d;stroke-width:2;stroke-opacity:1"
       points="261 289.60769515458674,255 300,249 289.60769515458674"
       transform="matrix(0.44032189,0,0,0.44032189,-5.3733514,119.59611)" />
    <text
       id="text329"
       style="font-size:5.28386259px;visibility:visible;fill:#000000;stroke-width:0.44032189"
       y="257.00421"
       x="16.083652">-4</text>
    <text
       id="text333"
       style="font-size:5.28386259px;visibility:visible;fill:#000000;stroke-width:0.44032189"
       y="257.00421"
       x="29.293308">-3</text>
    <text
       id="text337"
       style="font-size:5.28386259px;visibility:visible;fill:#000000;stroke-width:0.44032189"
       y="257.00421"
       x="42.502964">-2</text>
    <text
       id="text341"
       style="font-size:5.28386259px;visibility:visible;fill:#000000;stroke-width:0.44032189"
       y="257.00421"
       x="55.71262">-1</text>
    <text
       id="text349"
       style="font-size:5.28386259px;visibility:visible;fill:#000000;stroke-width:0.44032189"
       y="257.00421"
       x="82.13195">1</text>
    <text
       id="text353"
       style="font-size:5.28386259px;visibility:visible;fill:#000000;stroke-width:0.44032189"
       y="257.00421"
       x="95.341599">2</text>
    <text
       id="text357"
       style="font-size:5.28386259px;visibility:visible;fill:#000000;stroke-width:0.44032189"
       y="257.00421"
       x="108.55126">3</text>
    <text
       id="text369"
       style="font-size:5.28386259px;visibility:visible;fill:#000000;stroke-width:0.44032189"
       y="283.42352"
       x="68.922279">-2</text>
    <text
       id="text373"
       style="font-size:5.28386259px;visibility:visible;fill:#000000;stroke-width:0.44032189"
       y="270.21387"
       x="68.922279">-1</text>
    <text
       id="text377"
       style="font-size:5.28386259px;visibility:visible;fill:#000000;stroke-width:0.44032189"
       y="257.00421"
       x="68.922279">0</text>
    <text
       id="text381"
       style="font-size:5.28386259px;visibility:visible;fill:#000000;stroke-width:0.44032189"
       y="243.79456"
       x="68.922279">1</text>
    <text
       id="text385"
       style="font-size:5.28386259px;visibility:visible;fill:#000000;stroke-width:0.44032189"
       y="230.58488"
       x="68.922279">2</text>
    <text
       id="text389"
       style="font-size:5.28386259px;visibility:visible;fill:#000000;stroke-width:0.44032189"
       y="217.37524"
       x="68.922279">3</text>
    <text
       id="text393"
       style="font-size:5.28386259px;visibility:visible;fill:#000000;stroke-width:0.44032189"
       y="204.16559"
       x="68.922279">4</text>
    <text
       id="text397"
       style="font-size:5.28386259px;visibility:visible;fill:#000000;stroke-width:0.44032189"
       y="190.95595"
       x="68.922279">5</text>
    <text
       id="text401"
       style="font-size:5.28386259px;visibility:visible;fill:#000000;stroke-width:0.44032189"
       y="177.74629"
       x="68.922279">6</text>
  </g>
</svg>
