<?xml version="1.0" encoding="UTF-8" standalone="no"?>
<svg
   xmlns:dc="http://purl.org/dc/elements/1.1/"
   xmlns:cc="http://creativecommons.org/ns#"
   xmlns:rdf="http://www.w3.org/1999/02/22-rdf-syntax-ns#"
   xmlns:svg="http://www.w3.org/2000/svg"
   xmlns="http://www.w3.org/2000/svg"
   viewBox="0 0 300 300"
   version="1.1"
   id="svg1183"
   width="300"
   height="300">
  <metadata
     id="metadata1187">
    <rdf:RDF>
      <cc:Work
         rdf:about="">
        <dc:format>image/svg+xml</dc:format>
        <dc:type
           rdf:resource="http://purl.org/dc/dcmitype/StillImage" />
        <dc:title></dc:title>
      </cc:Work>
    </rdf:RDF>
  </metadata>
  <g
     id="1"
     transform="matrix(0.57063159,0,0,0.57039797,177.17673,180.89665)"
     visibility="visible"
     style="visibility:visible;stroke-width:1.75280297">
    <line
       x1="-5"
       y1="5"
       x2="5"
       y2="-5"
       style="stroke:#000000;stroke-width:1.75280297;stroke-linecap:round;stroke-opacity:1"
       id="line7" />
    <line
       x1="-5"
       y1="-5"
       x2="5"
       y2="5"
       style="stroke:#000000;stroke-width:1.75280297;stroke-linecap:round;stroke-opacity:1"
       id="line9" />
  </g>
  <g
     transform="matrix(0.57063159,0,0,0.57039797,177.17673,180.89665)"
     id="2"
     visibility="visible"
     style="visibility:visible;stroke-width:1.75280297">
    <circle
       r="150"
       cx="0"
       cy="0"
       style="fill:none;stroke:#000000;stroke-width:1.75280297;stroke-linecap:round;stroke-opacity:1"
       id="circle12" />
  </g>
  <g
     transform="matrix(0.57063159,0,0,0.57039797,262.77147,180.89665)"
     id="3"
     visibility="visible"
     style="visibility:visible;stroke-width:1.75280297">
    <path
       d="m -75,-129.90381 a 150,150 -120 0 0 0,259.80762"
       style="fill:none;stroke:#20b2aa;stroke-width:1.75280297;stroke-linecap:round;stroke-opacity:1"
       id="path18" />
  </g>
  <g
     transform="matrix(0.57063159,0,0,0.57039797,219.9741,106.79967)"
     id="4"
     visibility="visible"
     style="visibility:visible;stroke-width:1.75280297">
    <path
       d="M 75,129.90381 A 150,150 60 0 1 -150,0"
       style="fill:none;stroke:#20b2aa;stroke-width:1.75280297;stroke-linecap:round;stroke-opacity:1"
       id="path21" />
  </g>
  <g
     transform="matrix(0.57063159,0,0,0.57039797,134.37936,106.79967)"
     id="5"
     visibility="visible"
     style="visibility:visible;stroke-width:1.75280297">
    <path
       d="M -75,129.90381 A 150,150 120 0 0 150,0"
       style="fill:none;stroke:#20b2aa;stroke-width:1.75280297;stroke-linecap:round;stroke-opacity:1"
       id="path24" />
  </g>
  <g
     transform="matrix(0.57063159,0,0,0.57039797,91.581997,180.89665)"
     id="6"
     visibility="visible"
     style="visibility:visible;stroke-width:1.75280297">
    <path
       d="m 75,-129.90381 a 150,150 -60 0 1 0,259.80762"
       style="fill:none;stroke:#20b2aa;stroke-width:1.75280297;stroke-linecap:round;stroke-opacity:1"
       id="path27" />
  </g>
  <g
     transform="matrix(0.57063159,0,0,0.57039797,134.37936,254.99306)"
     id="7"
     visibility="visible"
     style="visibility:visible;stroke-width:1.75280297">
    <path
       d="M 150,0 A 150,150 0 0 0 -75,-129.90381"
       style="fill:none;stroke:#20b2aa;stroke-width:1.75280297;stroke-linecap:round;stroke-opacity:1"
       id="path30" />
  </g>
  <g
     transform="matrix(0.57063159,0,0,0.57039797,219.9741,254.99306)"
     id="8"
     visibility="visible"
     style="visibility:visible;stroke-width:1.75280297">
    <path
       d="M 75,-129.90381 A 150,150 -60 0 0 -150,0"
       style="fill:none;stroke:#20b2aa;stroke-width:1.75280297;stroke-linecap:round;stroke-opacity:1"
       id="path33" />
  </g>
  <g
     visibility="visible"
     id="9"
     transform="matrix(0.57063159,0,0,0.57039797,34.518838,9.7772568)"
     style="visibility:visible;stroke-width:1.75280297">
    <line
       x1="100"
       y1="300"
       x2="400"
       y2="300"
       style="stroke:#cc0044;stroke-width:1.75280297;stroke-linecap:round;stroke-dasharray:5.25840902, 5.25840902;stroke-opacity:1"
       id="line36" />
  </g>
  <g
     visibility="visible"
     id="10"
     transform="matrix(0.57063159,0,0,0.57039797,34.518838,9.7772568)"
     style="visibility:visible;stroke-width:1.75280297">
    <line
       x1="175"
       y1="429.89999"
       x2="294.70126"
       y2="222.57423"
       style="stroke:#cc0044;stroke-width:1.75280297;stroke-linecap:round;stroke-dasharray:5.25840902, 5.25840902;stroke-opacity:1"
       id="line39" />
  </g>
  <g
     visibility="hidden"
     id="11"
     transform="matrix(0.57063159,0,0,0.57039797,34.518838,9.7772568)"
     style="visibility:hidden;stroke-width:1.75280297">
    <line
       x1="175"
       y1="170.09599"
       x2="325"
       y2="429.90302"
       style="stroke:#cc0044;stroke-width:1.75280297;stroke-linecap:round;stroke-dasharray:5.25840902, 5.25840902;stroke-opacity:1"
       id="line42" />
  </g>
  <g
     style="stroke-width:1.75280297"
     transform="matrix(0.01988618,-0.57005149,0.57028497,0.01987804,134.37936,254.99134)"
     id="g83">
    <g
       style="stroke-width:1.75280297"
       transform="rotate(21.682203)"
       id="g53">
      <line
         x1="0"
         y1="0"
         x2="0"
         y2="-18"
         style="stroke:#000000;stroke-width:2.62920451"
         id="line45" />
      <path
         d="M 0,-18 V -203 H -7 V -18 Z"
         style="fill:#c0c0c0;fill-opacity:1;stroke:#000000;stroke-width:1.31460226"
         id="path47" />
      <circle
         cx="-3.5"
         cy="-38"
         r="6"
         style="fill:#c0c0c0;fill-opacity:1;stroke:#000000;stroke-width:1.31460226"
         id="circle49" />
      <circle
         cx="-3.5"
         cy="-38"
         r="2"
         style="fill:#c0c0c0;fill-opacity:1;stroke:#000000;stroke-width:1.75280297"
         id="circle51" />
    </g>
    <g
       style="stroke-width:1.75280297"
       transform="rotate(-21.682203,75,-391.63722)"
       id="g69">
      <path
         style="fill-opacity:1;stroke:#000000;stroke-width:1.31460226"
         d="m 0,0 v -18 l 3.5,-3.5 v 15 z"
         id="path55" />
      <path
         d="M 0,-18 V -203 H 7 V -18 Z"
         style="fill:#c0c0c0;fill-opacity:1;stroke:#000000;stroke-width:1.31460226"
         id="path57" />
      <path
         style="fill:#c0c0c0;fill-opacity:1;stroke:#000000;stroke-width:1.75280297"
         d="m 7,-33.5 a 4.5,3 -90 0 0 0,-9 z"
         id="path59" />
      <line
         x1="0"
         y1="-100"
         x2="7"
         y2="-93"
         style="stroke:#000000;stroke-width:1.75280297"
         id="line61" />
      <line
         x1="0"
         y1="-50"
         x2="7"
         y2="-50"
         style="stroke:#000000;stroke-width:1.75280297"
         id="line63" />
      <line
         x1="3.5"
         y1="-50"
         x2="3.5"
         y2="-73"
         style="stroke:#000000;stroke-width:1.75280297"
         id="line65" />
      <rect
         x="7"
         y="-68"
         width="4"
         height="12"
         style="fill:#c0c0c0;fill-opacity:1;stroke:#000000;stroke-width:1.31460226"
         id="rect67" />
    </g>
    <g
       style="stroke-width:1.75280297"
       transform="translate(75,-158.63722)"
       id="g81">
      <path
         d="m 0,0 h 3 l 9,-24 V -35 A 15,6 -90 0 1 6,-50 L 3,-70 h -6 l -3,20 a 15,6 90 0 1 -6,15 v 11 l 9,24 z"
         style="fill:#666666;fill-opacity:1;stroke:#000000;stroke-width:1.31460226"
         id="path71" />
      <line
         x1="6"
         y1="-50"
         x2="-6"
         y2="-50"
         style="stroke:#000000;stroke-width:1.75280297"
         id="line73" />
      <circle
         cx="-6"
         cy="-30"
         r="3"
         style="fill:#ffffff;fill-opacity:1;stroke:#000000;stroke-width:1.75280297"
         id="circle77" />
      <circle
         cx="6"
         cy="-30"
         r="3"
         style="fill:#ffffff;fill-opacity:1;stroke:#000000;stroke-width:1.75280297"
         id="circle79" />
    </g>
  </g>
  <g
     visibility="visible"
     transform="matrix(0.28531579,-0.49397913,0.49418145,0.28519898,134.37936,254.99305)"
     id="g927"
     style="visibility:visible;stroke-width:1.75280297">
    <rect
       x="-7"
       y="0"
       width="472"
       height="57"
       rx="6"
       ry="6"
       style="fill:#c6cbe8;fill-opacity:0.5;stroke:#999999;stroke-width:3.50560594"
       id="rect585" />
    <line
       x1="-6"
       y1="27"
       x2="465"
       y2="27"
       style="stroke:#999999;stroke-width:3.50560594"
       id="line587" />
  </g>
  <g
     visibility="visible"
     transform="matrix(-0.21367001,-0.52890107,0.5291177,-0.21358253,202.68468,136.73315)"
     id="g975"
     style="visibility:visible;stroke-width:1.75280297">
    <defs
       id="defs952">
      <linearGradient
         id="gradpointe"
         x1="-0.64574629"
         y1="-6.3997602"
         x2="-0.64574629"
         y2="6.3997602"
         gradientTransform="scale(1.347318,0.7422153)"
         gradientUnits="userSpaceOnUse">
        <stop
           offset="0%"
           style="stop-color: #f00000;"
           id="stop945" />
        <stop
           offset="50%"
           style="stop-color: #eeb444;"
           id="stop947" />
        <stop
           offset="100%"
           style="stop-color: #f00000"
           id="stop949" />
      </linearGradient>
    </defs>
    <defs
       id="defs965">
      <linearGradient
         id="gradcorps"
         x1="4.5923004"
         y1="-14.092884"
         x2="4.5923004"
         y2="14.092884"
         gradientTransform="scale(2.9669229,0.33704954)"
         gradientUnits="userSpaceOnUse">
        <stop
           offset="0%"
           style="stop-color: #810216;"
           id="stop954" />
        <stop
           offset="25%"
           style="stop-color: #c64f00;"
           id="stop956" />
        <stop
           offset="50%"
           style="stop-color: #ab4a36"
           id="stop958" />
        <stop
           offset="75%"
           style="stop-color: #c64f00;"
           id="stop960" />
        <stop
           offset="100%"
           style="stop-colr: #810216;"
           id="stop962" />
      </linearGradient>
    </defs>
    <path
       d="m 0,0 15,4.5 a 1.5,1.125 -90 0 0 0,-3 1.5,1.125 -90 0 1 0,-3 1.5,1.125 -90 0 0 0,-3 z"
       style="fill:url(#gradpointe);fill-opacity:1;stroke:#000000;stroke-width:0.87640148"
       id="path967" />
    <path
       d="M 0,0 3,0.9 V -0.9 Z"
       style="fill:#000000;fill-opacity:1;stroke:#000000;stroke-width:0.87640148"
       id="path969" />
    <path
       d="m 15,4.5 a 1.5,1.125 -90 0 0 0,-3 1.5,1.125 -90 0 1 0,-3 1.5,1.125 -90 0 0 0,-3 h 82 v 9 z"
       style="fill:url(#gradcorps);fill-opacity:1;stroke:#000000;stroke-width:0.87640148"
       id="path971" />
    <circle
       r="4.5"
       cx="97"
       cy="0"
       style="fill:#0000ff;fill-opacity:1;stroke:#0000ff;stroke-width:0.87640148"
       id="circle973" />
  </g>
  <defs
     id="defs984">
    <radialGradient
       id="radialfonce">
      <stop
         offset="0%"
         style="stop-color:#000099;"
         id="stop977" />
      <stop
         offset="80%"
         style="stop-color:#9999FF;"
         id="stop979" />
      <stop
         offset="100%"
         style="stop-color:#000099;"
         id="stop981" />
    </radialGradient>
  </defs>
  <defs
     id="defs993">
    <radialGradient
       id="radialclair">
      <stop
         offset="0%"
         style="stop-color:#666666;"
         id="stop986" />
      <stop
         offset="80%"
         style="stop-color:#CCCCCC;"
         id="stop988" />
      <stop
         offset="100%"
         style="stop-color:#666666;"
         id="stop990" />
    </radialGradient>
  </defs>
  <defs
     id="defs1002">
    <radialGradient
       id="radialrouge">
      <stop
         offset="0%"
         style="stop-color:#FF0000;"
         id="stop995" />
      <stop
         offset="80%"
         style="stop-color:#FF9999;"
         id="stop997" />
      <stop
         offset="100%"
         style="stop-color:#FF0000;"
         id="stop999" />
    </radialGradient>
  </defs>
</svg>
