<?xml version="1.0" encoding="UTF-8" standalone="no"?>
<svg
   xmlns:dc="http://purl.org/dc/elements/1.1/"
   xmlns:cc="http://creativecommons.org/ns#"
   xmlns:rdf="http://www.w3.org/1999/02/22-rdf-syntax-ns#"
   xmlns:svg="http://www.w3.org/2000/svg"
   xmlns="http://www.w3.org/2000/svg"
   id="svgbe10e70bd0-2"
   viewBox="0 0 300 300"
   version="1.1"
   width="300"
   height="300">
  <metadata
     id="metadata1111">
    <rdf:RDF>
      <cc:Work
         rdf:about="">
        <dc:format>image/svg+xml</dc:format>
        <dc:type
           rdf:resource="http://purl.org/dc/dcmitype/StillImage" />
        <dc:title></dc:title>
      </cc:Work>
    </rdf:RDF>
  </metadata>
  <g
     style="visibility:visible"
     id="g5590"
     transform="translate(93.993738,262.02525)">
    <path
       d="M 0,0 H 131 L 0,-223 Z M 24,-31 V -134.83969 L 85,-31 Z"
       style="fill:#c6cbe8;fill-opacity:0.5;stroke:#000000;stroke-width:0.75"
       id="path42" />
    <path
       d="M 16,-16 H 121.6009 L 16,-195.76336 Z m 8,-15 V -134.83969 L 85,-31 Z"
       style="fill:#c6cbe8;fill-opacity:0.5;stroke-width:0"
       id="path44" />
  </g>
  <g
     id="g5637"
     transform="translate(-158.56401,-64.748883)">
    <g
       transform="rotate(47.483791,-197.69239,367.31406)"
       id="g10"
       style="visibility:visible">
      <line
         x1="0"
         y1="0"
         x2="0"
         y2="-18"
         style="stroke:#000000;stroke-width:1.5"
         id="line2" />
      <path
         d="M 0,-18 V -203 H -7 V -18 Z"
         style="fill:#c0c0c0;fill-opacity:1;stroke:#000000;stroke-width:0.75"
         id="path4" />
      <circle
         cx="-3.5"
         cy="-38"
         r="6"
         style="fill:#c0c0c0;fill-opacity:1;stroke:#000000;stroke-width:0.75"
         id="circle6" />
      <circle
         cx="-3.5"
         cy="-38"
         r="2"
         style="fill:#c0c0c0;fill-opacity:1;stroke:#000000;stroke-width:1"
         id="circle8" />
    </g>
    <g
       transform="rotate(18.616209,-830.43236,1049.174)"
       id="g26"
       style="visibility:visible">
      <path
         style="fill-opacity:1;stroke:#000000;stroke-width:0.75"
         d="m 0,0 v -18 l 3.5,-3.5 v 15 z"
         id="path12" />
      <path
         d="M 0,-18 V -203 H 7 V -18 Z"
         style="fill:#c0c0c0;fill-opacity:1;stroke:#000000;stroke-width:0.75"
         id="path14" />
      <path
         style="fill:#c0c0c0;fill-opacity:1;stroke:#000000;stroke-width:1"
         d="m 7,-33.5 a 4.5,3 -90 0 0 0,-9 z"
         id="path16" />
      <line
         x1="0"
         y1="-100"
         x2="7"
         y2="-93"
         style="stroke:#000000;stroke-width:1"
         id="line18" />
      <line
         x1="0"
         y1="-50"
         x2="7"
         y2="-50"
         style="stroke:#000000;stroke-width:1"
         id="line20" />
      <line
         x1="3.5"
         y1="-50"
         x2="3.5"
         y2="-73"
         style="stroke:#000000;stroke-width:1"
         id="line22" />
      <rect
         x="7"
         y="-68"
         width="4"
         height="12"
         style="fill:#c0c0c0;fill-opacity:1;stroke:#000000;stroke-width:0.75"
         id="rect24" />
    </g>
    <path
       id="path28"
       style="visibility:visible;fill:#666666;fill-opacity:1;stroke:#000000;stroke-width:0.75"
       d="m 339.91737,152.7587 2.51459,1.63612 20.63265,-15.20835 5.99908,-9.22014 a 6,15 33.05 0 1 3.15139,-15.84515 l 8.39283,-18.400011 -5.02917,-3.272224 -13.422,15.127785 a 6,15 33.05 0 1 -13.20973,9.3007 l -5.99908,9.22015 -5.54514,25.02501 z" />
    <line
       id="line30"
       style="visibility:visible;stroke:#000000;stroke-width:1"
       y2="107.57673"
       x2="362.15674"
       y1="114.12118"
       x1="372.21509" />
    <circle
       transform="rotate(33.05)"
       id="circle34"
       style="visibility:visible;fill:#ffffff;fill-opacity:1;stroke:#000000;stroke-width:1"
       r="3"
       cy="-87.339401"
       cx="362.22714" />
    <circle
       transform="rotate(33.05)"
       id="circle36"
       style="visibility:visible;fill:#ffffff;fill-opacity:1;stroke:#000000;stroke-width:1"
       r="3"
       cy="-87.339401"
       cx="374.22714" />
  </g>
  <g
     visibility="visible"
     transform="matrix(0.7507146,-1.580032,1.2530055,0.85436518,172.80302,271.9413)"
     id="g932"
     style="visibility:visible;stroke-width:0.6176638">
    <defs
       id="defs909">
      <linearGradient
         id="gradpointe"
         x1="-0.64574629"
         y1="-6.3997602"
         x2="-0.64574629"
         y2="6.3997602"
         gradientTransform="scale(1.347318,0.7422153)"
         gradientUnits="userSpaceOnUse">
        <stop
           offset="0%"
           style="stop-color: #f00000;"
           id="stop902" />
        <stop
           offset="50%"
           style="stop-color: #eeb444;"
           id="stop904" />
        <stop
           offset="100%"
           style="stop-color: #f00000"
           id="stop906" />
      </linearGradient>
    </defs>
    <defs
       id="defs922">
      <linearGradient
         id="gradcorps"
         x1="4.5923004"
         y1="-14.092884"
         x2="4.5923004"
         y2="14.092884"
         gradientTransform="scale(2.9669229,0.33704954)"
         gradientUnits="userSpaceOnUse">
        <stop
           offset="0%"
           style="stop-color: #810216;"
           id="stop911" />
        <stop
           offset="25%"
           style="stop-color: #c64f00;"
           id="stop913" />
        <stop
           offset="50%"
           style="stop-color: #ab4a36"
           id="stop915" />
        <stop
           offset="75%"
           style="stop-color: #c64f00;"
           id="stop917" />
        <stop
           offset="100%"
           style="stop-colr: #810216;"
           id="stop919" />
      </linearGradient>
    </defs>
    <path
       d="m 0,0 15,4.5 a 1.5,1.125 -90 0 0 0,-3 1.5,1.125 -90 0 1 0,-3 1.5,1.125 -90 0 0 0,-3 z"
       style="fill:url(#gradpointe);fill-opacity:1;stroke:#000000;stroke-width:0.3088319"
       id="path924" />
    <path
       d="M 0,0 3,0.9 V -0.9 Z"
       style="fill:#000000;fill-opacity:1;stroke:#000000;stroke-width:0.3088319"
       id="path926" />
    <path
       d="m 15,4.5 a 1.5,1.125 -90 0 0 0,-3 1.5,1.125 -90 0 1 0,-3 1.5,1.125 -90 0 0 0,-3 h 82 v 9 z"
       style="fill:url(#gradcorps);fill-opacity:1;stroke:#000000;stroke-width:0.3088319"
       id="path928" />
    <circle
       r="4.5"
       cx="97"
       cy="0"
       style="fill:#0000ff;fill-opacity:1;stroke:#0000ff;stroke-width:0.3088319"
       id="circle930" />
  </g>
  <defs
     id="defs941">
    <radialGradient
       id="radialfonce">
      <stop
         offset="0%"
         style="stop-color:#000099;"
         id="stop934" />
      <stop
         offset="80%"
         style="stop-color:#9999FF;"
         id="stop936" />
      <stop
         offset="100%"
         style="stop-color:#000099;"
         id="stop938" />
    </radialGradient>
  </defs>
  <defs
     id="defs950">
    <radialGradient
       id="radialclair">
      <stop
         offset="0%"
         style="stop-color:#666666;"
         id="stop943" />
      <stop
         offset="80%"
         style="stop-color:#CCCCCC;"
         id="stop945" />
      <stop
         offset="100%"
         style="stop-color:#666666;"
         id="stop947" />
    </radialGradient>
  </defs>
  <defs
     id="defs959">
    <radialGradient
       id="radialrouge">
      <stop
         offset="0%"
         style="stop-color:#FF0000;"
         id="stop952" />
      <stop
         offset="80%"
         style="stop-color:#FF9999;"
         id="stop954" />
      <stop
         offset="100%"
         style="stop-color:#FF0000;"
         id="stop956" />
    </radialGradient>
  </defs>
</svg>
